<?xml version="1.0" encoding="UTF-8" standalone="no"?>
<svg
   xmlns:dc="http://purl.org/dc/elements/1.1/"
   xmlns:cc="http://creativecommons.org/ns#"
   xmlns:rdf="http://www.w3.org/1999/02/22-rdf-syntax-ns#"
   xmlns:svg="http://www.w3.org/2000/svg"
   xmlns="http://www.w3.org/2000/svg"
   xmlns:sodipodi="http://sodipodi.sourceforge.net/DTD/sodipodi-0.dtd"
   xmlns:inkscape="http://www.inkscape.org/namespaces/inkscape"
   width="184.26454"
   height="36.488747"
   viewBox="76.5 72.205 184.26454 36.488748"
   version="1.1"
   id="svg6261"
   sodipodi:docname="light.svg"
   inkscape:version="0.92.2 (unknown)"
   style="fill:#231f20">
  <metadata
     id="metadata6267">
    <rdf:RDF>
      <cc:Work
         rdf:about="">
        <dc:format>image/svg+xml</dc:format>
        <dc:type
           rdf:resource="http://purl.org/dc/dcmitype/StillImage" />
        <dc:title></dc:title>
      </cc:Work>
    </rdf:RDF>
  </metadata>
  <defs
     id="defs6265" />
  <sodipodi:namedview
     pagecolor="#ffffff"
     bordercolor="#666666"
     borderopacity="1"
     objecttolerance="10"
     gridtolerance="10"
     guidetolerance="10"
     inkscape:pageopacity="0"
     inkscape:pageshadow="2"
     inkscape:window-width="1920"
     inkscape:window-height="1017"
     id="namedview6263"
     showgrid="false"
     inkscape:snap-bbox="true"
     inkscape:bbox-nodes="true"
     inkscape:zoom="1.486243"
     inkscape:cx="-28.767782"
     inkscape:cy="20.405746"
     inkscape:window-x="0"
     inkscape:window-y="30"
     inkscape:window-maximized="1"
     inkscape:current-layer="svg6261"
     inkscape:snap-global="false" />
  <path
     d="m 173.35032,91.609014 c 0,5.730432 -4.78202,8.227088 -9.29304,8.227088 -5.05081,0 -8.94605,-3.07281 -8.94605,-7.971021 0,-5.186286 4.08691,-8.227091 9.25449,-8.227091 5.36036,0 8.9846,3.23377 8.9846,7.971024 z m -14.80652,0.160042 c 0,3.392898 2.353,5.954483 5.6688,5.954483 3.23869,0 5.6688,-2.529577 5.6688,-6.0185 0,-2.624695 -1.58078,-5.95449 -5.59059,-5.95449 -4.0098,0 -5.74701,3.073728 -5.74701,6.018507 z"
     id="path6257"
     inkscape:connector-curvature="0"
     style="stroke-width:1.0037123;fill:#ffffff" />
  <text
     xml:space="preserve"
     style="font-style:normal;font-weight:normal;font-size:40px;line-height:1.25;font-family:sans-serif;letter-spacing:0px;word-spacing:0px;fill:#ffffff;fill-opacity:1;stroke:none;"
     x="101.91653"
     y="99.724533"
     id="text6271"><tspan
       sodipodi:role="line"
       id="tspan6269"
       x="101.91653"
       y="99.724533">M</tspan></text>
  <text
     xml:space="preserve"
     style="font-style:normal;font-weight:normal;font-size:31.72252274px;line-height:1.25;font-family:sans-serif;letter-spacing:0px;word-spacing:0px;fill:#ffffff;fill-opacity:1;stroke:none;stroke-width:0.79306304;"
     x="126.7023"
     y="103.89738"
     id="text6275"
     transform="scale(1.0418438,0.95983679)"><tspan
       sodipodi:role="line"
       id="tspan6273"
       x="126.7023"
       y="103.89738"
       style="stroke-width:0.79306304;fill:#ffffff;">w</tspan></text>
  <text
     xml:space="preserve"
     style="font-style:normal;font-weight:normal;font-size:35.65478516px;line-height:1.25;font-family:sans-serif;letter-spacing:0px;word-spacing:0px;fill:#ffffff;fill-opacity:1;stroke:none;stroke-width:0.89136964;"
     x="163.30128"
     y="107.69947"
     id="text6279"
     transform="scale(1.0589251,0.94435386)"><tspan
       sodipodi:role="line"
       id="tspan6277"
       x="163.30128"
       y="107.69947"
       style="stroke-width:0.89136964;fill:#ffffff;">g</tspan></text>
  <path
     d="m 208.04531,92.353987 c 0,6.266005 -4.341,8.995993 -8.436,8.995993 -4.585,0 -8.121,-3.35999 -8.121,-8.715993 0,-5.671 3.71,-8.996 8.401,-8.996 4.866,0 8.156,3.536 8.156,8.716 z m -13.441,0.175 c 0,3.71 2.136,6.510995 5.146,6.510995 2.94,0 5.146,-2.765995 5.146,-6.580995 0,-2.87 -1.435,-6.511 -5.075,-6.511 -3.64,0 -5.217,3.361 -5.217,6.581 z"
     id="path6257-3"
     inkscape:connector-curvature="0"
     style="fill:#ffffff" />
  <text
     xml:space="preserve"
     style="font-style:normal;font-weight:normal;font-size:35.27288818px;line-height:1.25;font-family:sans-serif;letter-spacing:0px;word-spacing:0px;fill:#ffffff;fill-opacity:1;stroke:none;stroke-width:0.88182217;"
     x="225.12874"
     y="104.56072"
     id="text6319"
     transform="scale(1.0323869,0.9686291)"><tspan
       sodipodi:role="line"
       id="tspan6317"
       x="225.12874"
       y="104.56072"
       style="stroke-width:0.88182217;fill:#ffffff;">e</tspan></text>
  <text
     xml:space="preserve"
     style="font-style:normal;font-weight:normal;font-size:38.62164688px;line-height:1.25;font-family:sans-serif;letter-spacing:0px;word-spacing:0px;fill:#ffffff;fill-opacity:1;stroke:none;stroke-width:0.96554118;"
     x="254.41609"
     y="99.739906"
     id="text6323"
     transform="scale(0.98452407,1.0157192)"><tspan
       sodipodi:role="line"
       id="tspan6321"
       x="254.41609"
       y="99.739906"
       style="stroke-width:0.96554118;fill:#ffffff;">t</tspan></text>
  <text
     xml:space="preserve"
     style="font-style:normal;font-weight:normal;font-size:40px;line-height:1.25;font-family:sans-serif;letter-spacing:0px;word-spacing:0px;fill:#ffffff;fill-opacity:1;stroke:none;"
     x="208.3419"
     y="101.61421"
     id="text10259"><tspan
       sodipodi:role="line"
       id="tspan10257"
       x="208.3419"
       y="101.61421">N</tspan></text>
  <path
     id="path10396"
     style="stroke-width:1.26721931;fill:#ffffff"
     d="m 84.775359,76.681348 v 23.701172 h 2.710937 V 76.681348 Z m -5.419922,4.740234 v 14.220703 h 2.710937 V 81.421582 Z m 10.841796,0 v 14.220703 h 2.708985 V 81.421582 Z M 76.50778,86.161817 c 0.03744,0.03265 0.104411,0.08721 0.136719,0.117187 v -0.117187 z m 0.0098,3.162109 c -0.0052,8.73e-4 -0.01243,0.003 -0.01758,0.0039 0.03031,3e-4 0.05817,0.0022 0.08594,0.002 -0.0161,-0.0021 -0.05142,-0.0037 -0.06836,-0.0059 z"
     inkscape:connector-curvature="0" />
  <ellipse
     id="path10421"
     cx="85.9161"
     cy="103.31773"
     rx="1.5979891"
     ry="1.5138843"
     style="fill:#ffffff" />
  <ellipse
     id="path10421-0"
     cx="80.374619"
     cy="98.532211"
     rx="1.5979891"
     ry="1.5138843"
     style="fill:#ffffff" />
  <ellipse
     id="path10421-0-5"
     cx="91.308228"
     cy="98.868637"
     rx="1.5979891"
     ry="1.5138843"
     style="fill:#ffffff" />
</svg>
